<?xml version="1.0" standalone="no"?>
<!DOCTYPE svg PUBLIC "-//W3C//DTD SVG 20010904//EN"
 "http://www.w3.org/TR/2001/REC-SVG-20010904/DTD/svg10.dtd">
<svg version="1.0" xmlns="http://www.w3.org/2000/svg"
 width="128.000000pt" height="128.000000pt" viewBox="0 0 128.000000 128.000000"
 preserveAspectRatio="xMidYMid meet">

<g transform="translate(0.000000,128.000000) scale(0.100000,-0.100000)"
fill="#dc3545" stroke="none">
<path d="M666 1159 c-3 -8 -62 -236 -132 -508 -121 -474 -125 -495 -108 -508
26 -19 60 -26 89 -19 18 5 27 16 34 44 5 20 64 246 131 501 137 521 134 490
41 499 -37 3 -52 1 -55 -9z"/>
<path d="M816 978 c-25 -29 -46 -56 -46 -60 0 -4 56 -70 125 -148 69 -78 125
-144 125 -147 0 -3 -57 -66 -126 -140 -69 -74 -124 -138 -122 -143 10 -29 85
-110 103 -110 13 0 85 66 208 190 103 105 187 195 187 200 0 5 -82 100 -181
210 -136 150 -187 200 -204 200 -16 0 -39 -18 -69 -52z"/>
<path d="M247 943 c-35 -43 -101 -123 -146 -177 -49 -59 -81 -107 -79 -118 2
-9 68 -99 147 -199 133 -166 146 -180 170 -174 27 6 101 79 101 99 0 6 -48 68
-105 138 -58 71 -105 133 -105 139 0 6 47 66 105 134 58 68 105 128 105 134 0
6 -19 32 -41 56 -60 64 -75 61 -152 -32z"/>
</g>
</svg>
