<svg width="73" height="73" viewBox="0 0 73 73" fill="none" xmlns="http://www.w3.org/2000/svg">
<g id="logo">
<circle id="Ellipse 3" cx="36.5" cy="36.5" r="36.5" fill="#000000"/>
<path id="Vector" d="M27.8418 17.5409C21.1366 20.4505 -4.12596 32.9508 12.6553 49.4384C13.5252 50.3005 14.3951 51.1985 15.1925 52.1684C18.7444 56.4429 30.8501 68.7996 46.3629 59.7835C47.6314 59.0292 48.9362 58.3826 50.3135 57.8079C54.7354 55.9041 65.3188 49.5821 64.9926 32.5557C64.9926 32.1247 64.9926 31.6936 64.9926 31.2626C64.9926 27.1317 64.0865 -2.35914 31.1401 15.9245C30.089 16.4992 28.9654 17.0739 27.8781 17.5409H27.8418Z" fill="#ff0000"/>
<path id="Vector_2" d="M25 36.6067V36.5C25 36.5 25.1137 36.2155 25.1896 36.18L32.4313 32.0551C32.6967 31.9129 33 32.0551 33 32.3752V33.7264C33 33.7264 32.8863 33.9753 32.8104 34.0464L28.3365 36.5356L32.8104 38.9536C32.8104 38.9536 33 39.0958 33 39.2736V40.6248C33 40.9449 32.6967 41.0871 32.4313 40.9449L25.1896 36.9267C25.1896 36.9267 25 36.7134 25 36.6067Z" fill="#000000"/>
<path id="Vector_3" d="M37.8383 29.2545C37.8383 29.2545 38.017 29 38.1956 29H39.6246C39.9103 29 40.0532 29.2182 39.9818 29.5091L36.1593 42.7455C36.1593 42.7455 35.945 43 35.8021 43H34.3731C34.123 43 33.9444 42.7818 34.0159 42.4909L37.8741 29.2545H37.8383Z" fill="#000000"/>
<path id="Vector_4" d="M41 39.2736C41 39.2736 41.0758 39.0247 41.1896 38.9536L45.6635 36.5356L41.1896 34.0464C41.1896 34.0464 41 33.9042 41 33.7264V32.3752C41 32.0551 41.3033 31.9129 41.5687 32.0551L48.8104 36.18C48.8104 36.18 49 36.3933 49 36.5V36.6067C49 36.6067 48.8863 36.8911 48.8104 36.9267L41.5687 40.9449C41.3033 41.0871 41 40.9449 41 40.6248V39.2736Z" fill="#000000"/>
<path id="Vector_5" d="M46.5317 18.7854C48.6819 18.7854 50.3584 19.3983 51.634 20.6961C54.2215 23.2558 55.0962 28.267 55.0598 31.7639C55.0598 32.1245 55.0598 32.4489 55.0598 32.8815C55.242 43.6249 49.3015 47.7708 45.7664 49.285C44.5637 49.7897 43.361 50.4026 42.2313 51.0515C39.9352 52.3854 37.6028 53.0704 35.3432 53.0704C29.1112 53.0704 24.264 48.0592 22.4783 45.8961C21.8223 45.103 21.0934 44.3459 20.2187 43.4446C16.3556 39.6592 16.8293 37.1717 16.9751 36.3785C17.8498 31.6918 25.1387 27.0051 31.0792 24.4455C32.0268 24.0129 33.0108 23.5442 33.9948 23.0034C39.0241 20.2275 43.2517 18.8215 46.5317 18.8215M46.5317 15C42.8873 15 38.1859 16.3339 32.0996 19.6867C31.2614 20.1554 30.3867 20.588 29.5121 20.9845C24.1912 23.2918 4.18305 33.17 17.4853 46.2567C18.1778 46.9416 18.8702 47.6627 19.4898 48.4197C21.5671 50.9433 27.4347 57 35.3432 57C38.0766 57 41.0286 56.279 44.1993 54.4403C45.2197 53.8635 46.2402 53.3227 47.3335 52.8541C50.8686 51.3399 59.2145 46.3648 58.9958 32.8815C58.9958 32.521 58.9958 32.1966 58.9958 31.836C58.9958 29.3124 58.5949 15 46.5682 15H46.5317Z" fill="#000000"/>
</g>
</svg>